<svg xmlns="http://www.w3.org/2000/svg" xmlns:xlink="http://www.w3.org/1999/xlink" width="500" zoomAndPan="magnify" viewBox="0 0 375 374.999991" height="500" preserveAspectRatio="xMidYMid meet" version="1.0"><defs><g/></defs><g fill="#000000" fill-opacity="1"><g transform="translate(80.826892, 198.710113)"><g><path d="M 3.078125 -42.25 L 15.3125 -42.25 C 21.175781 -42.25 26.191406 -40.238281 30.359375 -36.21875 C 34.523438 -32.207031 36.609375 -27.179688 36.609375 -21.140625 C 36.609375 -15.066406 34.535156 -10.023438 30.390625 -6.015625 C 26.242188 -2.003906 21.21875 0 15.3125 0 L 3.078125 0 Z M 12.703125 -8.609375 L 14.1875 -8.609375 C 17.695312 -8.609375 20.570312 -9.789062 22.8125 -12.15625 C 25.050781 -14.53125 26.1875 -17.507812 26.21875 -21.09375 C 26.21875 -24.675781 25.097656 -27.660156 22.859375 -30.046875 C 20.628906 -32.441406 17.738281 -33.640625 14.1875 -33.640625 L 12.703125 -33.640625 Z M 12.703125 -8.609375 "/></g></g></g><g fill="#000000" fill-opacity="1"><g transform="translate(113.797804, 198.710113)"><g><path d="M 29.640625 -11.875 L 10.59375 -11.875 C 10.59375 -10.03125 11.191406 -8.664062 12.390625 -7.78125 C 13.585938 -6.894531 14.882812 -6.453125 16.28125 -6.453125 C 17.75 -6.453125 18.910156 -6.644531 19.765625 -7.03125 C 20.617188 -7.425781 21.59375 -8.207031 22.6875 -9.375 L 29.234375 -6.09375 C 26.503906 -1.519531 21.960938 0.765625 15.609375 0.765625 C 11.648438 0.765625 8.253906 -0.585938 5.421875 -3.296875 C 2.585938 -6.015625 1.171875 -9.285156 1.171875 -13.109375 C 1.171875 -16.929688 2.585938 -20.207031 5.421875 -22.9375 C 8.253906 -25.664062 11.648438 -27.03125 15.609375 -27.03125 C 19.773438 -27.03125 23.164062 -25.828125 25.78125 -23.421875 C 28.394531 -21.015625 29.703125 -17.578125 29.703125 -13.109375 C 29.703125 -12.492188 29.679688 -12.082031 29.640625 -11.875 Z M 10.859375 -16.890625 L 20.84375 -16.890625 C 20.632812 -18.253906 20.09375 -19.300781 19.21875 -20.03125 C 18.351562 -20.769531 17.238281 -21.140625 15.875 -21.140625 C 14.375 -21.140625 13.175781 -20.75 12.28125 -19.96875 C 11.394531 -19.1875 10.921875 -18.160156 10.859375 -16.890625 Z M 10.859375 -16.890625 "/></g></g></g><g fill="#000000" fill-opacity="1"><g transform="translate(139.856818, 198.710113)"><g><path d="M 4.859375 -3.25 C 2.398438 -5.925781 1.171875 -9.207031 1.171875 -13.09375 C 1.171875 -16.988281 2.398438 -20.285156 4.859375 -22.984375 C 7.316406 -25.679688 10.441406 -27.03125 14.234375 -27.03125 C 17.710938 -27.03125 20.582031 -25.941406 22.84375 -23.765625 L 22.84375 -26.265625 L 31.90625 -26.265625 L 31.90625 0 L 22.9375 0 L 22.9375 -2.96875 L 22.84375 -2.96875 C 20.582031 -0.476562 17.710938 0.765625 14.234375 0.765625 C 10.441406 0.765625 7.316406 -0.570312 4.859375 -3.25 Z M 12.5625 -17.5625 C 11.382812 -16.40625 10.796875 -14.921875 10.796875 -13.109375 C 10.796875 -11.296875 11.359375 -9.816406 12.484375 -8.671875 C 13.617188 -7.535156 15.109375 -6.96875 16.953125 -6.96875 C 18.722656 -6.96875 20.179688 -7.546875 21.328125 -8.703125 C 22.472656 -9.867188 23.046875 -11.335938 23.046875 -13.109375 C 23.046875 -14.921875 22.457031 -16.40625 21.28125 -17.5625 C 20.101562 -18.71875 18.660156 -19.296875 16.953125 -19.296875 C 15.210938 -19.296875 13.75 -18.71875 12.5625 -17.5625 Z M 12.5625 -17.5625 "/></g></g></g><g fill="#000000" fill-opacity="1"><g transform="translate(170.011775, 198.710113)"><g><path d="M 4.859375 -3.25 C 2.398438 -5.925781 1.171875 -9.207031 1.171875 -13.09375 C 1.171875 -16.988281 2.398438 -20.285156 4.859375 -22.984375 C 7.316406 -25.679688 10.441406 -27.03125 14.234375 -27.03125 C 17.710938 -27.03125 20.582031 -25.941406 22.84375 -23.765625 L 22.84375 -44.03125 L 31.90625 -44.03125 L 31.90625 0 L 22.9375 0 L 22.9375 -2.96875 L 22.84375 -2.96875 C 20.582031 -0.476562 17.710938 0.765625 14.234375 0.765625 C 10.441406 0.765625 7.316406 -0.570312 4.859375 -3.25 Z M 12.5625 -17.5625 C 11.382812 -16.40625 10.796875 -14.921875 10.796875 -13.109375 C 10.796875 -11.296875 11.359375 -9.816406 12.484375 -8.671875 C 13.617188 -7.535156 15.109375 -6.96875 16.953125 -6.96875 C 18.722656 -6.96875 20.179688 -7.546875 21.328125 -8.703125 C 22.472656 -9.867188 23.046875 -11.335938 23.046875 -13.109375 C 23.046875 -14.921875 22.457031 -16.40625 21.28125 -17.5625 C 20.101562 -18.71875 18.660156 -19.296875 16.953125 -19.296875 C 15.210938 -19.296875 13.75 -18.71875 12.5625 -17.5625 Z M 12.5625 -17.5625 "/></g></g></g><g fill="#000000" fill-opacity="1"><g transform="translate(200.166732, 198.710113)"><g><path d="M 3.078125 0 L 3.078125 -44.03125 L 12.140625 -44.03125 L 12.140625 0 Z M 3.078125 0 "/></g></g></g><g fill="#000000" fill-opacity="1"><g transform="translate(210.558779, 198.710113)"><g><path d="M 3.9375 -40.90625 C 5 -41.96875 6.265625 -42.5 7.734375 -42.5 C 9.203125 -42.5 10.460938 -41.96875 11.515625 -40.90625 C 12.578125 -39.851562 13.109375 -38.59375 13.109375 -37.125 C 13.109375 -35.65625 12.578125 -34.390625 11.515625 -33.328125 C 10.460938 -32.273438 9.203125 -31.75 7.734375 -31.75 C 6.265625 -31.75 5 -32.273438 3.9375 -33.328125 C 2.882812 -34.390625 2.359375 -35.65625 2.359375 -37.125 C 2.359375 -38.59375 2.882812 -39.851562 3.9375 -40.90625 Z M 3.078125 -26.265625 L 3.078125 0 L 12.140625 0 L 12.140625 -26.265625 Z M 3.078125 -26.265625 "/></g></g></g><g fill="#000000" fill-opacity="1"><g transform="translate(221.206819, 198.710113)"><g><path d="M 3.078125 0 L 3.078125 -26.265625 L 12.140625 -26.265625 L 12.140625 -23.5 L 12.234375 -23.5 C 14.585938 -25.851562 17.097656 -27.03125 19.765625 -27.03125 C 21.054688 -27.03125 22.34375 -26.859375 23.625 -26.515625 C 24.90625 -26.179688 26.132812 -25.65625 27.3125 -24.9375 C 28.488281 -24.21875 29.441406 -23.203125 30.171875 -21.890625 C 30.910156 -20.578125 31.28125 -19.050781 31.28125 -17.3125 L 31.28125 0 L 22.21875 0 L 22.21875 -14.84375 C 22.21875 -16.207031 21.78125 -17.398438 20.90625 -18.421875 C 20.039062 -19.453125 18.910156 -19.96875 17.515625 -19.96875 C 16.148438 -19.96875 14.910156 -19.4375 13.796875 -18.375 C 12.691406 -17.320312 12.140625 -16.144531 12.140625 -14.84375 L 12.140625 0 Z M 3.078125 0 "/></g></g></g><g fill="#000000" fill-opacity="1"><g transform="translate(250.235397, 198.710113)"><g><path d="M 29.640625 -11.875 L 10.59375 -11.875 C 10.59375 -10.03125 11.191406 -8.664062 12.390625 -7.78125 C 13.585938 -6.894531 14.882812 -6.453125 16.28125 -6.453125 C 17.75 -6.453125 18.910156 -6.644531 19.765625 -7.03125 C 20.617188 -7.425781 21.59375 -8.207031 22.6875 -9.375 L 29.234375 -6.09375 C 26.503906 -1.519531 21.960938 0.765625 15.609375 0.765625 C 11.648438 0.765625 8.253906 -0.585938 5.421875 -3.296875 C 2.585938 -6.015625 1.171875 -9.285156 1.171875 -13.109375 C 1.171875 -16.929688 2.585938 -20.207031 5.421875 -22.9375 C 8.253906 -25.664062 11.648438 -27.03125 15.609375 -27.03125 C 19.773438 -27.03125 23.164062 -25.828125 25.78125 -23.421875 C 28.394531 -21.015625 29.703125 -17.578125 29.703125 -13.109375 C 29.703125 -12.492188 29.679688 -12.082031 29.640625 -11.875 Z M 10.859375 -16.890625 L 20.84375 -16.890625 C 20.632812 -18.253906 20.09375 -19.300781 19.21875 -20.03125 C 18.351562 -20.769531 17.238281 -21.140625 15.875 -21.140625 C 14.375 -21.140625 13.175781 -20.75 12.28125 -19.96875 C 11.394531 -19.1875 10.921875 -18.160156 10.859375 -16.890625 Z M 10.859375 -16.890625 "/></g></g></g><g fill="#000000" fill-opacity="1"><g transform="translate(276.294416, 198.710113)"><g><path d="M 8.90625 -10.953125 C 10.539062 -10.953125 11.929688 -10.378906 13.078125 -9.234375 C 14.222656 -8.097656 14.796875 -6.707031 14.796875 -5.0625 C 14.796875 -3.457031 14.222656 -2.082031 13.078125 -0.9375 C 11.929688 0.195312 10.539062 0.765625 8.90625 0.765625 C 7.300781 0.765625 5.925781 0.195312 4.78125 -0.9375 C 3.644531 -2.082031 3.078125 -3.457031 3.078125 -5.0625 C 3.078125 -6.707031 3.644531 -8.097656 4.78125 -9.234375 C 5.925781 -10.378906 7.300781 -10.953125 8.90625 -10.953125 Z M 8.90625 -10.953125 "/></g></g></g><g fill="#000000" fill-opacity="1"><g transform="translate(122.352374, 212.619406)"><g><path d="M 3.328125 -5.3125 C 3.773438 -5.3125 4.179688 -5.195312 4.546875 -4.96875 C 4.921875 -4.738281 5.210938 -4.414062 5.421875 -4 C 5.640625 -3.59375 5.75 -3.132812 5.75 -2.625 C 5.75 -2.113281 5.640625 -1.648438 5.421875 -1.234375 C 5.210938 -0.828125 4.925781 -0.503906 4.5625 -0.265625 C 4.195312 -0.0351562 3.785156 0.078125 3.328125 0.078125 C 2.929688 0.078125 2.566406 -0.015625 2.234375 -0.203125 C 1.898438 -0.398438 1.632812 -0.65625 1.4375 -0.96875 L 1.4375 1.75 C 1.4375 1.84375 1.40625 1.914062 1.34375 1.96875 C 1.289062 2.03125 1.21875 2.0625 1.125 2.0625 C 1.03125 2.0625 0.953125 2.03125 0.890625 1.96875 C 0.835938 1.914062 0.8125 1.84375 0.8125 1.75 L 0.8125 -4.96875 C 0.8125 -5.0625 0.835938 -5.140625 0.890625 -5.203125 C 0.953125 -5.265625 1.03125 -5.296875 1.125 -5.296875 C 1.21875 -5.296875 1.289062 -5.265625 1.34375 -5.203125 C 1.40625 -5.140625 1.4375 -5.0625 1.4375 -4.96875 L 1.4375 -4.265625 C 1.613281 -4.585938 1.867188 -4.84375 2.203125 -5.03125 C 2.546875 -5.21875 2.921875 -5.3125 3.328125 -5.3125 Z M 3.265625 -0.5 C 3.628906 -0.5 3.953125 -0.585938 4.234375 -0.765625 C 4.515625 -0.953125 4.734375 -1.207031 4.890625 -1.53125 C 5.054688 -1.851562 5.140625 -2.21875 5.140625 -2.625 C 5.140625 -3.03125 5.054688 -3.390625 4.890625 -3.703125 C 4.734375 -4.023438 4.515625 -4.273438 4.234375 -4.453125 C 3.953125 -4.640625 3.628906 -4.734375 3.265625 -4.734375 C 2.898438 -4.734375 2.570312 -4.644531 2.28125 -4.46875 C 2 -4.289062 1.773438 -4.039062 1.609375 -3.71875 C 1.453125 -3.394531 1.375 -3.03125 1.375 -2.625 C 1.375 -2.21875 1.453125 -1.851562 1.609375 -1.53125 C 1.773438 -1.207031 2 -0.953125 2.28125 -0.765625 C 2.570312 -0.585938 2.898438 -0.5 3.265625 -0.5 Z M 3.265625 -0.5 "/></g></g></g><g fill="#000000" fill-opacity="1"><g transform="translate(135.273652, 212.619406)"><g><path d="M 3.28125 -5.390625 C 3.414062 -5.390625 3.535156 -5.363281 3.640625 -5.3125 C 3.753906 -5.257812 3.8125 -5.175781 3.8125 -5.0625 C 3.8125 -4.96875 3.785156 -4.890625 3.734375 -4.828125 C 3.679688 -4.773438 3.613281 -4.75 3.53125 -4.75 C 3.5 -4.75 3.429688 -4.765625 3.328125 -4.796875 C 3.234375 -4.828125 3.140625 -4.84375 3.046875 -4.84375 C 2.796875 -4.84375 2.546875 -4.742188 2.296875 -4.546875 C 2.046875 -4.359375 1.835938 -4.109375 1.671875 -3.796875 C 1.515625 -3.484375 1.4375 -3.171875 1.4375 -2.859375 L 1.4375 -0.3125 C 1.4375 -0.21875 1.40625 -0.140625 1.34375 -0.078125 C 1.289062 -0.0234375 1.21875 0 1.125 0 C 1.03125 0 0.953125 -0.0234375 0.890625 -0.078125 C 0.835938 -0.140625 0.8125 -0.21875 0.8125 -0.3125 L 0.8125 -4.921875 C 0.8125 -5.015625 0.835938 -5.085938 0.890625 -5.140625 C 0.953125 -5.203125 1.03125 -5.234375 1.125 -5.234375 C 1.21875 -5.234375 1.289062 -5.203125 1.34375 -5.140625 C 1.40625 -5.085938 1.4375 -5.015625 1.4375 -4.921875 L 1.4375 -4.015625 C 1.59375 -4.410156 1.828125 -4.738281 2.140625 -5 C 2.460938 -5.257812 2.84375 -5.390625 3.28125 -5.390625 Z M 3.28125 -5.390625 "/></g></g></g><g fill="#000000" fill-opacity="1"><g transform="translate(145.959669, 212.619406)"><g><path d="M 5.6875 -2.640625 C 5.6875 -2.117188 5.570312 -1.648438 5.34375 -1.234375 C 5.113281 -0.816406 4.800781 -0.488281 4.40625 -0.25 C 4.007812 -0.0078125 3.566406 0.109375 3.078125 0.109375 C 2.585938 0.109375 2.140625 -0.0078125 1.734375 -0.25 C 1.335938 -0.488281 1.023438 -0.816406 0.796875 -1.234375 C 0.578125 -1.648438 0.46875 -2.117188 0.46875 -2.640625 C 0.46875 -3.148438 0.578125 -3.613281 0.796875 -4.03125 C 1.023438 -4.457031 1.335938 -4.789062 1.734375 -5.03125 C 2.140625 -5.269531 2.585938 -5.390625 3.078125 -5.390625 C 3.566406 -5.390625 4.007812 -5.269531 4.40625 -5.03125 C 4.800781 -4.789062 5.113281 -4.457031 5.34375 -4.03125 C 5.570312 -3.613281 5.6875 -3.148438 5.6875 -2.640625 Z M 5.0625 -2.640625 C 5.0625 -3.054688 4.972656 -3.425781 4.796875 -3.75 C 4.628906 -4.082031 4.390625 -4.34375 4.078125 -4.53125 C 3.773438 -4.71875 3.441406 -4.8125 3.078125 -4.8125 C 2.703125 -4.8125 2.363281 -4.71875 2.0625 -4.53125 C 1.757812 -4.34375 1.519531 -4.082031 1.34375 -3.75 C 1.164062 -3.425781 1.078125 -3.054688 1.078125 -2.640625 C 1.078125 -2.234375 1.164062 -1.863281 1.34375 -1.53125 C 1.519531 -1.207031 1.757812 -0.945312 2.0625 -0.75 C 2.363281 -0.5625 2.703125 -0.46875 3.078125 -0.46875 C 3.441406 -0.46875 3.773438 -0.5625 4.078125 -0.75 C 4.390625 -0.9375 4.628906 -1.191406 4.796875 -1.515625 C 4.972656 -1.847656 5.0625 -2.222656 5.0625 -2.640625 Z M 5.0625 -2.640625 "/></g></g></g><g fill="#000000" fill-opacity="1"><g transform="translate(158.808848, 212.619406)"><g><path d="M 5.09375 -7.625 C 5.1875 -7.625 5.257812 -7.59375 5.3125 -7.53125 C 5.375 -7.476562 5.40625 -7.410156 5.40625 -7.328125 L 5.40625 -0.3125 C 5.40625 -0.21875 5.375 -0.140625 5.3125 -0.078125 C 5.257812 -0.0234375 5.1875 0 5.09375 0 C 5 0 4.921875 -0.0234375 4.859375 -0.078125 C 4.804688 -0.140625 4.78125 -0.21875 4.78125 -0.3125 L 4.78125 -1.03125 C 4.613281 -0.71875 4.359375 -0.445312 4.015625 -0.21875 C 3.671875 0 3.296875 0.109375 2.890625 0.109375 C 2.429688 0.109375 2.019531 -0.0078125 1.65625 -0.25 C 1.289062 -0.488281 1 -0.816406 0.78125 -1.234375 C 0.570312 -1.648438 0.46875 -2.125 0.46875 -2.65625 C 0.46875 -3.164062 0.570312 -3.628906 0.78125 -4.046875 C 1 -4.472656 1.289062 -4.800781 1.65625 -5.03125 C 2.019531 -5.269531 2.425781 -5.390625 2.875 -5.390625 C 3.28125 -5.390625 3.65625 -5.285156 4 -5.078125 C 4.34375 -4.878906 4.601562 -4.617188 4.78125 -4.296875 L 4.78125 -7.328125 C 4.78125 -7.410156 4.804688 -7.476562 4.859375 -7.53125 C 4.921875 -7.59375 5 -7.625 5.09375 -7.625 Z M 2.953125 -0.46875 C 3.304688 -0.46875 3.625 -0.5625 3.90625 -0.75 C 4.195312 -0.9375 4.421875 -1.195312 4.578125 -1.53125 C 4.742188 -1.863281 4.828125 -2.238281 4.828125 -2.65625 C 4.828125 -3.0625 4.742188 -3.425781 4.578125 -3.75 C 4.421875 -4.082031 4.195312 -4.34375 3.90625 -4.53125 C 3.625 -4.71875 3.304688 -4.8125 2.953125 -4.8125 C 2.585938 -4.8125 2.265625 -4.71875 1.984375 -4.53125 C 1.703125 -4.34375 1.476562 -4.082031 1.3125 -3.75 C 1.15625 -3.425781 1.078125 -3.0625 1.078125 -2.65625 C 1.078125 -2.238281 1.15625 -1.863281 1.3125 -1.53125 C 1.476562 -1.207031 1.703125 -0.945312 1.984375 -0.75 C 2.265625 -0.5625 2.585938 -0.46875 2.953125 -0.46875 Z M 2.953125 -0.46875 "/></g></g></g><g fill="#000000" fill-opacity="1"><g transform="translate(171.730126, 212.619406)"><g><path d="M 4.75 -5.234375 C 4.84375 -5.234375 4.914062 -5.203125 4.96875 -5.140625 C 5.03125 -5.085938 5.0625 -5.015625 5.0625 -4.921875 L 5.0625 -2.015625 C 5.0625 -1.347656 4.867188 -0.832031 4.484375 -0.46875 C 4.109375 -0.101562 3.585938 0.078125 2.921875 0.078125 C 2.265625 0.078125 1.75 -0.101562 1.375 -0.46875 C 1 -0.832031 0.8125 -1.347656 0.8125 -2.015625 L 0.8125 -4.921875 C 0.8125 -5.015625 0.835938 -5.085938 0.890625 -5.140625 C 0.953125 -5.203125 1.03125 -5.234375 1.125 -5.234375 C 1.21875 -5.234375 1.289062 -5.203125 1.34375 -5.140625 C 1.40625 -5.085938 1.4375 -5.015625 1.4375 -4.921875 L 1.4375 -2.015625 C 1.4375 -1.523438 1.566406 -1.148438 1.828125 -0.890625 C 2.085938 -0.628906 2.453125 -0.5 2.921875 -0.5 C 3.410156 -0.5 3.785156 -0.628906 4.046875 -0.890625 C 4.304688 -1.148438 4.4375 -1.523438 4.4375 -2.015625 L 4.4375 -4.921875 C 4.4375 -5.015625 4.46875 -5.085938 4.53125 -5.140625 C 4.59375 -5.203125 4.664062 -5.234375 4.75 -5.234375 Z M 4.75 -5.234375 "/></g></g></g><g fill="#000000" fill-opacity="1"><g transform="translate(184.311479, 212.619406)"><g><path d="M 3.09375 -5.390625 C 3.414062 -5.390625 3.710938 -5.351562 3.984375 -5.28125 C 4.265625 -5.207031 4.488281 -5.109375 4.65625 -4.984375 C 4.832031 -4.867188 4.921875 -4.738281 4.921875 -4.59375 C 4.921875 -4.507812 4.894531 -4.4375 4.84375 -4.375 C 4.789062 -4.320312 4.726562 -4.296875 4.65625 -4.296875 C 4.582031 -4.296875 4.519531 -4.304688 4.46875 -4.328125 C 4.425781 -4.359375 4.378906 -4.398438 4.328125 -4.453125 C 4.242188 -4.546875 4.160156 -4.613281 4.078125 -4.65625 C 3.972656 -4.695312 3.832031 -4.734375 3.65625 -4.765625 C 3.488281 -4.796875 3.3125 -4.8125 3.125 -4.8125 C 2.75 -4.8125 2.40625 -4.710938 2.09375 -4.515625 C 1.78125 -4.328125 1.53125 -4.066406 1.34375 -3.734375 C 1.164062 -3.410156 1.078125 -3.050781 1.078125 -2.65625 C 1.078125 -2.238281 1.160156 -1.863281 1.328125 -1.53125 C 1.503906 -1.207031 1.742188 -0.945312 2.046875 -0.75 C 2.359375 -0.5625 2.710938 -0.46875 3.109375 -0.46875 C 3.347656 -0.46875 3.539062 -0.488281 3.6875 -0.53125 C 3.84375 -0.570312 3.992188 -0.632812 4.140625 -0.71875 C 4.179688 -0.738281 4.265625 -0.796875 4.390625 -0.890625 C 4.441406 -0.941406 4.488281 -0.976562 4.53125 -1 C 4.570312 -1.03125 4.613281 -1.046875 4.65625 -1.046875 C 4.738281 -1.046875 4.800781 -1.019531 4.84375 -0.96875 C 4.894531 -0.914062 4.921875 -0.847656 4.921875 -0.765625 C 4.921875 -0.648438 4.835938 -0.523438 4.671875 -0.390625 C 4.515625 -0.253906 4.289062 -0.132812 4 -0.03125 C 3.707031 0.0625 3.390625 0.109375 3.046875 0.109375 C 2.546875 0.109375 2.097656 -0.0078125 1.703125 -0.25 C 1.304688 -0.488281 1 -0.816406 0.78125 -1.234375 C 0.570312 -1.648438 0.46875 -2.125 0.46875 -2.65625 C 0.46875 -3.15625 0.578125 -3.613281 0.796875 -4.03125 C 1.015625 -4.445312 1.320312 -4.773438 1.71875 -5.015625 C 2.125 -5.265625 2.582031 -5.390625 3.09375 -5.390625 Z M 3.09375 -5.390625 "/></g></g></g><g fill="#000000" fill-opacity="1"><g transform="translate(196.326293, 212.619406)"><g><path d="M 1.84375 -4.671875 L 1.84375 -1.21875 C 1.84375 -0.957031 1.890625 -0.78125 1.984375 -0.6875 C 2.085938 -0.59375 2.21875 -0.546875 2.375 -0.546875 C 2.414062 -0.546875 2.46875 -0.550781 2.53125 -0.5625 C 2.59375 -0.582031 2.640625 -0.59375 2.671875 -0.59375 C 2.734375 -0.59375 2.785156 -0.566406 2.828125 -0.515625 C 2.867188 -0.460938 2.890625 -0.40625 2.890625 -0.34375 C 2.890625 -0.25 2.832031 -0.164062 2.71875 -0.09375 C 2.613281 -0.03125 2.488281 0 2.34375 0 C 2.15625 0 1.988281 -0.015625 1.84375 -0.046875 C 1.695312 -0.0859375 1.554688 -0.191406 1.421875 -0.359375 C 1.296875 -0.535156 1.234375 -0.8125 1.234375 -1.1875 L 1.234375 -4.671875 L 0.46875 -4.671875 C 0.382812 -4.671875 0.3125 -4.695312 0.25 -4.75 C 0.195312 -4.8125 0.171875 -4.878906 0.171875 -4.953125 C 0.171875 -5.035156 0.195312 -5.101562 0.25 -5.15625 C 0.3125 -5.21875 0.382812 -5.25 0.46875 -5.25 L 1.234375 -5.25 L 1.234375 -6.390625 C 1.234375 -6.484375 1.257812 -6.554688 1.3125 -6.609375 C 1.375 -6.671875 1.445312 -6.703125 1.53125 -6.703125 C 1.625 -6.703125 1.695312 -6.671875 1.75 -6.609375 C 1.8125 -6.554688 1.84375 -6.484375 1.84375 -6.390625 L 1.84375 -5.25 L 2.875 -5.25 C 2.945312 -5.25 3.015625 -5.21875 3.078125 -5.15625 C 3.140625 -5.09375 3.171875 -5.023438 3.171875 -4.953125 C 3.171875 -4.867188 3.140625 -4.800781 3.078125 -4.75 C 3.023438 -4.695312 2.957031 -4.671875 2.875 -4.671875 Z M 1.84375 -4.671875 "/></g></g></g><g fill="#000000" fill-opacity="1"><g transform="translate(206.538479, 212.619406)"><g><path d="M 1.40625 -0.3125 C 1.40625 -0.21875 1.375 -0.140625 1.3125 -0.078125 C 1.257812 -0.0234375 1.191406 0 1.109375 0 C 1.015625 0 0.9375 -0.0234375 0.875 -0.078125 C 0.820312 -0.140625 0.796875 -0.21875 0.796875 -0.3125 L 0.796875 -5.046875 C 0.796875 -5.140625 0.820312 -5.210938 0.875 -5.265625 C 0.9375 -5.328125 1.015625 -5.359375 1.109375 -5.359375 C 1.191406 -5.359375 1.257812 -5.328125 1.3125 -5.265625 C 1.375 -5.210938 1.40625 -5.140625 1.40625 -5.046875 Z M 1.109375 -6.046875 C 0.972656 -6.046875 0.863281 -6.078125 0.78125 -6.140625 C 0.707031 -6.210938 0.671875 -6.3125 0.671875 -6.4375 L 0.671875 -6.53125 C 0.671875 -6.65625 0.707031 -6.75 0.78125 -6.8125 C 0.863281 -6.882812 0.976562 -6.921875 1.125 -6.921875 C 1.394531 -6.921875 1.53125 -6.789062 1.53125 -6.53125 L 1.53125 -6.4375 C 1.53125 -6.3125 1.492188 -6.210938 1.421875 -6.140625 C 1.347656 -6.078125 1.242188 -6.046875 1.109375 -6.046875 Z M 1.109375 -6.046875 "/></g></g></g><g fill="#000000" fill-opacity="1"><g transform="translate(215.463067, 212.619406)"><g><path d="M 4.796875 -5.375 C 4.867188 -5.375 4.929688 -5.347656 4.984375 -5.296875 C 5.046875 -5.253906 5.078125 -5.191406 5.078125 -5.109375 C 5.078125 -5.046875 5.066406 -4.988281 5.046875 -4.9375 L 3.015625 -0.203125 C 2.992188 -0.140625 2.957031 -0.0859375 2.90625 -0.046875 C 2.851562 -0.015625 2.800781 0 2.75 0 C 2.675781 0.0078125 2.609375 0 2.546875 -0.03125 C 2.492188 -0.0703125 2.457031 -0.128906 2.4375 -0.203125 L 0.40625 -4.9375 C 0.40625 -4.945312 0.398438 -4.96875 0.390625 -5 C 0.378906 -5.03125 0.375 -5.054688 0.375 -5.078125 C 0.375 -5.160156 0.398438 -5.234375 0.453125 -5.296875 C 0.503906 -5.359375 0.582031 -5.390625 0.6875 -5.390625 C 0.75 -5.390625 0.804688 -5.367188 0.859375 -5.328125 C 0.910156 -5.285156 0.953125 -5.234375 0.984375 -5.171875 L 2.734375 -1 L 4.5 -5.171875 C 4.519531 -5.234375 4.554688 -5.285156 4.609375 -5.328125 C 4.660156 -5.367188 4.722656 -5.382812 4.796875 -5.375 Z M 4.796875 -5.375 "/></g></g></g><g fill="#000000" fill-opacity="1"><g transform="translate(227.632405, 212.619406)"><g><path d="M 1.40625 -0.3125 C 1.40625 -0.21875 1.375 -0.140625 1.3125 -0.078125 C 1.257812 -0.0234375 1.191406 0 1.109375 0 C 1.015625 0 0.9375 -0.0234375 0.875 -0.078125 C 0.820312 -0.140625 0.796875 -0.21875 0.796875 -0.3125 L 0.796875 -5.046875 C 0.796875 -5.140625 0.820312 -5.210938 0.875 -5.265625 C 0.9375 -5.328125 1.015625 -5.359375 1.109375 -5.359375 C 1.191406 -5.359375 1.257812 -5.328125 1.3125 -5.265625 C 1.375 -5.210938 1.40625 -5.140625 1.40625 -5.046875 Z M 1.109375 -6.046875 C 0.972656 -6.046875 0.863281 -6.078125 0.78125 -6.140625 C 0.707031 -6.210938 0.671875 -6.3125 0.671875 -6.4375 L 0.671875 -6.53125 C 0.671875 -6.65625 0.707031 -6.75 0.78125 -6.8125 C 0.863281 -6.882812 0.976562 -6.921875 1.125 -6.921875 C 1.394531 -6.921875 1.53125 -6.789062 1.53125 -6.53125 L 1.53125 -6.4375 C 1.53125 -6.3125 1.492188 -6.210938 1.421875 -6.140625 C 1.347656 -6.078125 1.242188 -6.046875 1.109375 -6.046875 Z M 1.109375 -6.046875 "/></g></g></g><g fill="#000000" fill-opacity="1"><g transform="translate(236.556999, 212.619406)"><g><path d="M 1.84375 -4.671875 L 1.84375 -1.21875 C 1.84375 -0.957031 1.890625 -0.78125 1.984375 -0.6875 C 2.085938 -0.59375 2.21875 -0.546875 2.375 -0.546875 C 2.414062 -0.546875 2.46875 -0.550781 2.53125 -0.5625 C 2.59375 -0.582031 2.640625 -0.59375 2.671875 -0.59375 C 2.734375 -0.59375 2.785156 -0.566406 2.828125 -0.515625 C 2.867188 -0.460938 2.890625 -0.40625 2.890625 -0.34375 C 2.890625 -0.25 2.832031 -0.164062 2.71875 -0.09375 C 2.613281 -0.03125 2.488281 0 2.34375 0 C 2.15625 0 1.988281 -0.015625 1.84375 -0.046875 C 1.695312 -0.0859375 1.554688 -0.191406 1.421875 -0.359375 C 1.296875 -0.535156 1.234375 -0.8125 1.234375 -1.1875 L 1.234375 -4.671875 L 0.46875 -4.671875 C 0.382812 -4.671875 0.3125 -4.695312 0.25 -4.75 C 0.195312 -4.8125 0.171875 -4.878906 0.171875 -4.953125 C 0.171875 -5.035156 0.195312 -5.101562 0.25 -5.15625 C 0.3125 -5.21875 0.382812 -5.25 0.46875 -5.25 L 1.234375 -5.25 L 1.234375 -6.390625 C 1.234375 -6.484375 1.257812 -6.554688 1.3125 -6.609375 C 1.375 -6.671875 1.445312 -6.703125 1.53125 -6.703125 C 1.625 -6.703125 1.695312 -6.671875 1.75 -6.609375 C 1.8125 -6.554688 1.84375 -6.484375 1.84375 -6.390625 L 1.84375 -5.25 L 2.875 -5.25 C 2.945312 -5.25 3.015625 -5.21875 3.078125 -5.15625 C 3.140625 -5.09375 3.171875 -5.023438 3.171875 -4.953125 C 3.171875 -4.867188 3.140625 -4.800781 3.078125 -4.75 C 3.023438 -4.695312 2.957031 -4.671875 2.875 -4.671875 Z M 1.84375 -4.671875 "/></g></g></g><g fill="#000000" fill-opacity="1"><g transform="translate(246.769191, 212.619406)"><g><path d="M 4.75 -5.359375 C 4.832031 -5.359375 4.898438 -5.328125 4.953125 -5.265625 C 5.015625 -5.210938 5.046875 -5.140625 5.046875 -5.046875 L 5.046875 -0.5 C 5.046875 0.0390625 4.9375 0.503906 4.71875 0.890625 C 4.507812 1.273438 4.21875 1.566406 3.84375 1.765625 C 3.46875 1.960938 3.039062 2.0625 2.5625 2.0625 C 2.28125 2.0625 2.007812 2.03125 1.75 1.96875 C 1.5 1.90625 1.296875 1.820312 1.140625 1.71875 C 0.992188 1.632812 0.921875 1.535156 0.921875 1.421875 C 0.921875 1.410156 0.925781 1.375 0.9375 1.3125 C 0.957031 1.25 0.988281 1.195312 1.03125 1.15625 C 1.082031 1.125 1.140625 1.109375 1.203125 1.109375 C 1.242188 1.109375 1.28125 1.117188 1.3125 1.140625 C 1.757812 1.378906 2.179688 1.5 2.578125 1.5 C 3.148438 1.5 3.601562 1.320312 3.9375 0.96875 C 4.269531 0.613281 4.4375 0.125 4.4375 -0.5 L 4.4375 -0.859375 C 4.257812 -0.566406 4.007812 -0.332031 3.6875 -0.15625 C 3.363281 0.0195312 3.015625 0.109375 2.640625 0.109375 C 2.046875 0.109375 1.59375 -0.0664062 1.28125 -0.421875 C 0.96875 -0.785156 0.8125 -1.273438 0.8125 -1.890625 L 0.8125 -5.046875 C 0.8125 -5.140625 0.835938 -5.210938 0.890625 -5.265625 C 0.953125 -5.328125 1.03125 -5.359375 1.125 -5.359375 C 1.21875 -5.359375 1.289062 -5.328125 1.34375 -5.265625 C 1.40625 -5.210938 1.4375 -5.140625 1.4375 -5.046875 L 1.4375 -1.984375 C 1.4375 -1.484375 1.539062 -1.101562 1.75 -0.84375 C 1.96875 -0.59375 2.3125 -0.46875 2.78125 -0.46875 C 3.0625 -0.46875 3.328125 -0.535156 3.578125 -0.671875 C 3.835938 -0.816406 4.046875 -1.003906 4.203125 -1.234375 C 4.359375 -1.472656 4.4375 -1.722656 4.4375 -1.984375 L 4.4375 -5.046875 C 4.4375 -5.140625 4.460938 -5.210938 4.515625 -5.265625 C 4.578125 -5.328125 4.65625 -5.359375 4.75 -5.359375 Z M 4.75 -5.359375 "/></g></g></g></svg>