<svg xmlns="http://www.w3.org/2000/svg" xmlns:xlink="http://www.w3.org/1999/xlink" width="250" zoomAndPan="magnify" viewBox="0 0 187.5 37.5" height="50" preserveAspectRatio="xMidYMid meet" version="1.0"><defs><g/></defs><g fill="#000000" fill-opacity="1"><g transform="translate(28.796018, 26.919783)"><g><path d="M 1.859375 -25.625 L 9.28125 -25.625 C 12.84375 -25.625 15.882812 -24.40625 18.40625 -21.96875 C 20.9375 -19.539062 22.203125 -16.492188 22.203125 -12.828125 C 22.203125 -9.140625 20.941406 -6.078125 18.421875 -3.640625 C 15.910156 -1.210938 12.863281 0 9.28125 0 L 1.859375 0 Z M 7.703125 -5.21875 L 8.609375 -5.21875 C 10.734375 -5.21875 12.472656 -5.9375 13.828125 -7.375 C 15.191406 -8.8125 15.882812 -10.617188 15.90625 -12.796875 C 15.90625 -14.972656 15.222656 -16.785156 13.859375 -18.234375 C 12.503906 -19.679688 10.753906 -20.40625 8.609375 -20.40625 L 7.703125 -20.40625 Z M 7.703125 -5.21875 "/></g></g></g><g fill="#000000" fill-opacity="1"><g transform="translate(48.795979, 26.919783)"><g><path d="M 17.984375 -7.203125 L 6.4375 -7.203125 C 6.4375 -6.085938 6.796875 -5.257812 7.515625 -4.71875 C 8.242188 -4.175781 9.03125 -3.90625 9.875 -3.90625 C 10.769531 -3.90625 11.472656 -4.023438 11.984375 -4.265625 C 12.503906 -4.503906 13.097656 -4.976562 13.765625 -5.6875 L 17.734375 -3.703125 C 16.078125 -0.921875 13.320312 0.46875 9.46875 0.46875 C 7.070312 0.46875 5.015625 -0.351562 3.296875 -2 C 1.578125 -3.644531 0.71875 -5.628906 0.71875 -7.953125 C 0.71875 -10.273438 1.578125 -12.265625 3.296875 -13.921875 C 5.015625 -15.578125 7.070312 -16.40625 9.46875 -16.40625 C 12 -16.40625 14.054688 -15.671875 15.640625 -14.203125 C 17.222656 -12.742188 18.015625 -10.660156 18.015625 -7.953125 C 18.015625 -7.578125 18.003906 -7.328125 17.984375 -7.203125 Z M 6.578125 -10.25 L 12.640625 -10.25 C 12.515625 -11.082031 12.1875 -11.71875 11.65625 -12.15625 C 11.132812 -12.601562 10.457031 -12.828125 9.625 -12.828125 C 8.71875 -12.828125 7.992188 -12.585938 7.453125 -12.109375 C 6.910156 -11.640625 6.617188 -11.019531 6.578125 -10.25 Z M 6.578125 -10.25 "/></g></g></g><g fill="#000000" fill-opacity="1"><g transform="translate(64.603222, 26.919783)"><g><path d="M 2.953125 -1.96875 C 1.460938 -3.59375 0.71875 -5.585938 0.71875 -7.953125 C 0.71875 -10.316406 1.460938 -12.316406 2.953125 -13.953125 C 4.441406 -15.585938 6.335938 -16.40625 8.640625 -16.40625 C 10.742188 -16.40625 12.484375 -15.738281 13.859375 -14.40625 L 13.859375 -15.9375 L 19.359375 -15.9375 L 19.359375 0 L 13.921875 0 L 13.921875 -1.796875 L 13.859375 -1.796875 C 12.484375 -0.285156 10.742188 0.46875 8.640625 0.46875 C 6.335938 0.46875 4.441406 -0.34375 2.953125 -1.96875 Z M 7.625 -10.640625 C 6.90625 -9.941406 6.546875 -9.046875 6.546875 -7.953125 C 6.546875 -6.859375 6.890625 -5.960938 7.578125 -5.265625 C 8.265625 -4.566406 9.164062 -4.21875 10.28125 -4.21875 C 11.351562 -4.21875 12.238281 -4.570312 12.9375 -5.28125 C 13.632812 -5.988281 13.984375 -6.878906 13.984375 -7.953125 C 13.984375 -9.046875 13.625 -9.941406 12.90625 -10.640625 C 12.1875 -11.347656 11.3125 -11.703125 10.28125 -11.703125 C 9.226562 -11.703125 8.34375 -11.347656 7.625 -10.640625 Z M 7.625 -10.640625 "/></g></g></g><g fill="#000000" fill-opacity="1"><g transform="translate(82.895041, 26.919783)"><g><path d="M 2.953125 -1.96875 C 1.460938 -3.59375 0.71875 -5.585938 0.71875 -7.953125 C 0.71875 -10.316406 1.460938 -12.316406 2.953125 -13.953125 C 4.441406 -15.585938 6.335938 -16.40625 8.640625 -16.40625 C 10.742188 -16.40625 12.484375 -15.738281 13.859375 -14.40625 L 13.859375 -26.71875 L 19.359375 -26.71875 L 19.359375 0 L 13.921875 0 L 13.921875 -1.796875 L 13.859375 -1.796875 C 12.484375 -0.285156 10.742188 0.46875 8.640625 0.46875 C 6.335938 0.46875 4.441406 -0.34375 2.953125 -1.96875 Z M 7.625 -10.640625 C 6.90625 -9.941406 6.546875 -9.046875 6.546875 -7.953125 C 6.546875 -6.859375 6.890625 -5.960938 7.578125 -5.265625 C 8.265625 -4.566406 9.164062 -4.21875 10.28125 -4.21875 C 11.351562 -4.21875 12.238281 -4.570312 12.9375 -5.28125 C 13.632812 -5.988281 13.984375 -6.878906 13.984375 -7.953125 C 13.984375 -9.046875 13.625 -9.941406 12.90625 -10.640625 C 12.1875 -11.347656 11.3125 -11.703125 10.28125 -11.703125 C 9.226562 -11.703125 8.34375 -11.347656 7.625 -10.640625 Z M 7.625 -10.640625 "/></g></g></g><g fill="#000000" fill-opacity="1"><g transform="translate(101.186859, 26.919783)"><g><path d="M 1.859375 0 L 1.859375 -26.71875 L 7.359375 -26.71875 L 7.359375 0 Z M 1.859375 0 "/></g></g></g><g fill="#000000" fill-opacity="1"><g transform="translate(107.490613, 26.919783)"><g><path d="M 2.390625 -24.8125 C 3.035156 -25.457031 3.800781 -25.78125 4.6875 -25.78125 C 5.582031 -25.78125 6.347656 -25.457031 6.984375 -24.8125 C 7.628906 -24.175781 7.953125 -23.410156 7.953125 -22.515625 C 7.953125 -21.628906 7.628906 -20.863281 6.984375 -20.21875 C 6.347656 -19.582031 5.582031 -19.265625 4.6875 -19.265625 C 3.800781 -19.265625 3.035156 -19.582031 2.390625 -20.21875 C 1.742188 -20.863281 1.421875 -21.628906 1.421875 -22.515625 C 1.421875 -23.410156 1.742188 -24.175781 2.390625 -24.8125 Z M 1.859375 -15.9375 L 1.859375 0 L 7.359375 0 L 7.359375 -15.9375 Z M 1.859375 -15.9375 "/></g></g></g><g fill="#000000" fill-opacity="1"><g transform="translate(113.949651, 26.919783)"><g><path d="M 1.859375 0 L 1.859375 -15.9375 L 7.359375 -15.9375 L 7.359375 -14.25 L 7.421875 -14.25 C 8.847656 -15.6875 10.367188 -16.40625 11.984375 -16.40625 C 12.773438 -16.40625 13.554688 -16.300781 14.328125 -16.09375 C 15.109375 -15.882812 15.851562 -15.5625 16.5625 -15.125 C 17.28125 -14.6875 17.863281 -14.066406 18.3125 -13.265625 C 18.757812 -12.472656 18.984375 -11.550781 18.984375 -10.5 L 18.984375 0 L 13.484375 0 L 13.484375 -9.015625 C 13.484375 -9.835938 13.21875 -10.554688 12.6875 -11.171875 C 12.15625 -11.796875 11.46875 -12.109375 10.625 -12.109375 C 9.789062 -12.109375 9.035156 -11.785156 8.359375 -11.140625 C 7.691406 -10.503906 7.359375 -9.796875 7.359375 -9.015625 L 7.359375 0 Z M 1.859375 0 "/></g></g></g><g fill="#000000" fill-opacity="1"><g transform="translate(131.558215, 26.919783)"><g><path d="M 17.984375 -7.203125 L 6.4375 -7.203125 C 6.4375 -6.085938 6.796875 -5.257812 7.515625 -4.71875 C 8.242188 -4.175781 9.03125 -3.90625 9.875 -3.90625 C 10.769531 -3.90625 11.472656 -4.023438 11.984375 -4.265625 C 12.503906 -4.503906 13.097656 -4.976562 13.765625 -5.6875 L 17.734375 -3.703125 C 16.078125 -0.921875 13.320312 0.46875 9.46875 0.46875 C 7.070312 0.46875 5.015625 -0.351562 3.296875 -2 C 1.578125 -3.644531 0.71875 -5.628906 0.71875 -7.953125 C 0.71875 -10.273438 1.578125 -12.265625 3.296875 -13.921875 C 5.015625 -15.578125 7.070312 -16.40625 9.46875 -16.40625 C 12 -16.40625 14.054688 -15.671875 15.640625 -14.203125 C 17.222656 -12.742188 18.015625 -10.660156 18.015625 -7.953125 C 18.015625 -7.578125 18.003906 -7.328125 17.984375 -7.203125 Z M 6.578125 -10.25 L 12.640625 -10.25 C 12.515625 -11.082031 12.1875 -11.71875 11.65625 -12.15625 C 11.132812 -12.601562 10.457031 -12.828125 9.625 -12.828125 C 8.71875 -12.828125 7.992188 -12.585938 7.453125 -12.109375 C 6.910156 -11.640625 6.617188 -11.019531 6.578125 -10.25 Z M 6.578125 -10.25 "/></g></g></g><g fill="#000000" fill-opacity="1"><g transform="translate(147.365461, 26.919783)"><g><path d="M 5.40625 -6.640625 C 6.394531 -6.640625 7.238281 -6.289062 7.9375 -5.59375 C 8.632812 -4.90625 8.984375 -4.066406 8.984375 -3.078125 C 8.984375 -2.097656 8.632812 -1.257812 7.9375 -0.5625 C 7.238281 0.125 6.394531 0.46875 5.40625 0.46875 C 4.425781 0.46875 3.585938 0.125 2.890625 -0.5625 C 2.203125 -1.257812 1.859375 -2.097656 1.859375 -3.078125 C 1.859375 -4.066406 2.203125 -4.90625 2.890625 -5.59375 C 3.585938 -6.289062 4.425781 -6.640625 5.40625 -6.640625 Z M 5.40625 -6.640625 "/></g></g></g><g fill="#000000" fill-opacity="1"><g transform="translate(53.98513, 35.357072)"><g><path d="M 2.015625 -3.21875 C 2.285156 -3.21875 2.53125 -3.144531 2.75 -3 C 2.976562 -2.863281 3.15625 -2.671875 3.28125 -2.421875 C 3.414062 -2.179688 3.484375 -1.90625 3.484375 -1.59375 C 3.484375 -1.28125 3.414062 -1 3.28125 -0.75 C 3.15625 -0.5 2.984375 -0.300781 2.765625 -0.15625 C 2.546875 -0.0195312 2.296875 0.046875 2.015625 0.046875 C 1.773438 0.046875 1.550781 -0.0078125 1.34375 -0.125 C 1.144531 -0.238281 0.988281 -0.394531 0.875 -0.59375 L 0.875 1.0625 C 0.875 1.113281 0.851562 1.15625 0.8125 1.1875 C 0.78125 1.226562 0.738281 1.25 0.6875 1.25 C 0.625 1.25 0.578125 1.226562 0.546875 1.1875 C 0.515625 1.15625 0.5 1.113281 0.5 1.0625 L 0.5 -3.015625 C 0.5 -3.066406 0.515625 -3.109375 0.546875 -3.140625 C 0.578125 -3.179688 0.625 -3.203125 0.6875 -3.203125 C 0.738281 -3.203125 0.78125 -3.179688 0.8125 -3.140625 C 0.851562 -3.109375 0.875 -3.066406 0.875 -3.015625 L 0.875 -2.59375 C 0.976562 -2.78125 1.128906 -2.929688 1.328125 -3.046875 C 1.535156 -3.160156 1.765625 -3.21875 2.015625 -3.21875 Z M 1.984375 -0.3125 C 2.203125 -0.3125 2.394531 -0.363281 2.5625 -0.46875 C 2.738281 -0.582031 2.875 -0.734375 2.96875 -0.921875 C 3.070312 -1.117188 3.125 -1.34375 3.125 -1.59375 C 3.125 -1.832031 3.070312 -2.046875 2.96875 -2.234375 C 2.875 -2.429688 2.738281 -2.585938 2.5625 -2.703125 C 2.394531 -2.816406 2.203125 -2.875 1.984375 -2.875 C 1.765625 -2.875 1.566406 -2.816406 1.390625 -2.703125 C 1.210938 -2.597656 1.078125 -2.445312 0.984375 -2.25 C 0.890625 -2.0625 0.84375 -1.84375 0.84375 -1.59375 C 0.84375 -1.34375 0.890625 -1.117188 0.984375 -0.921875 C 1.078125 -0.734375 1.210938 -0.582031 1.390625 -0.46875 C 1.566406 -0.363281 1.765625 -0.3125 1.984375 -0.3125 Z M 1.984375 -0.3125 "/></g></g></g><g fill="#000000" fill-opacity="1"><g transform="translate(61.8231, 35.357072)"><g><path d="M 1.984375 -3.265625 C 2.066406 -3.265625 2.140625 -3.25 2.203125 -3.21875 C 2.273438 -3.1875 2.3125 -3.132812 2.3125 -3.0625 C 2.3125 -3.007812 2.296875 -2.960938 2.265625 -2.921875 C 2.234375 -2.890625 2.191406 -2.875 2.140625 -2.875 C 2.117188 -2.875 2.078125 -2.882812 2.015625 -2.90625 C 1.960938 -2.925781 1.90625 -2.9375 1.84375 -2.9375 C 1.695312 -2.9375 1.546875 -2.875 1.390625 -2.75 C 1.234375 -2.632812 1.109375 -2.484375 1.015625 -2.296875 C 0.921875 -2.109375 0.875 -1.921875 0.875 -1.734375 L 0.875 -0.1875 C 0.875 -0.132812 0.851562 -0.0859375 0.8125 -0.046875 C 0.78125 -0.015625 0.738281 0 0.6875 0 C 0.625 0 0.578125 -0.015625 0.546875 -0.046875 C 0.515625 -0.0859375 0.5 -0.132812 0.5 -0.1875 L 0.5 -2.984375 C 0.5 -3.035156 0.515625 -3.078125 0.546875 -3.109375 C 0.578125 -3.148438 0.625 -3.171875 0.6875 -3.171875 C 0.738281 -3.171875 0.78125 -3.148438 0.8125 -3.109375 C 0.851562 -3.078125 0.875 -3.035156 0.875 -2.984375 L 0.875 -2.4375 C 0.96875 -2.675781 1.109375 -2.875 1.296875 -3.03125 C 1.492188 -3.1875 1.722656 -3.265625 1.984375 -3.265625 Z M 1.984375 -3.265625 "/></g></g></g><g fill="#000000" fill-opacity="1"><g transform="translate(68.305175, 35.357072)"><g><path d="M 3.4375 -1.59375 C 3.4375 -1.28125 3.367188 -1 3.234375 -0.75 C 3.097656 -0.5 2.910156 -0.300781 2.671875 -0.15625 C 2.429688 -0.0078125 2.160156 0.0625 1.859375 0.0625 C 1.566406 0.0625 1.296875 -0.0078125 1.046875 -0.15625 C 0.804688 -0.300781 0.617188 -0.5 0.484375 -0.75 C 0.347656 -1 0.28125 -1.28125 0.28125 -1.59375 C 0.28125 -1.90625 0.347656 -2.1875 0.484375 -2.4375 C 0.617188 -2.695312 0.804688 -2.898438 1.046875 -3.046875 C 1.296875 -3.191406 1.566406 -3.265625 1.859375 -3.265625 C 2.160156 -3.265625 2.429688 -3.191406 2.671875 -3.046875 C 2.910156 -2.898438 3.097656 -2.695312 3.234375 -2.4375 C 3.367188 -2.1875 3.4375 -1.90625 3.4375 -1.59375 Z M 3.0625 -1.59375 C 3.0625 -1.84375 3.007812 -2.066406 2.90625 -2.265625 C 2.800781 -2.472656 2.65625 -2.632812 2.46875 -2.75 C 2.289062 -2.863281 2.085938 -2.921875 1.859375 -2.921875 C 1.640625 -2.921875 1.4375 -2.863281 1.25 -2.75 C 1.0625 -2.632812 0.914062 -2.472656 0.8125 -2.265625 C 0.707031 -2.066406 0.65625 -1.84375 0.65625 -1.59375 C 0.65625 -1.351562 0.707031 -1.128906 0.8125 -0.921875 C 0.914062 -0.722656 1.0625 -0.566406 1.25 -0.453125 C 1.4375 -0.335938 1.640625 -0.28125 1.859375 -0.28125 C 2.085938 -0.28125 2.289062 -0.335938 2.46875 -0.453125 C 2.65625 -0.566406 2.800781 -0.722656 2.90625 -0.921875 C 3.007812 -1.117188 3.0625 -1.34375 3.0625 -1.59375 Z M 3.0625 -1.59375 "/></g></g></g><g fill="#000000" fill-opacity="1"><g transform="translate(76.099411, 35.357072)"><g><path d="M 3.09375 -4.625 C 3.144531 -4.625 3.1875 -4.601562 3.21875 -4.5625 C 3.257812 -4.53125 3.28125 -4.488281 3.28125 -4.4375 L 3.28125 -0.1875 C 3.28125 -0.132812 3.257812 -0.0859375 3.21875 -0.046875 C 3.1875 -0.015625 3.144531 0 3.09375 0 C 3.03125 0 2.984375 -0.015625 2.953125 -0.046875 C 2.921875 -0.0859375 2.90625 -0.132812 2.90625 -0.1875 L 2.90625 -0.625 C 2.800781 -0.4375 2.644531 -0.273438 2.4375 -0.140625 C 2.226562 -0.00390625 2 0.0625 1.75 0.0625 C 1.476562 0.0625 1.226562 -0.0078125 1 -0.15625 C 0.78125 -0.300781 0.601562 -0.5 0.46875 -0.75 C 0.34375 -1 0.28125 -1.285156 0.28125 -1.609375 C 0.28125 -1.921875 0.34375 -2.203125 0.46875 -2.453125 C 0.601562 -2.710938 0.78125 -2.910156 1 -3.046875 C 1.226562 -3.191406 1.476562 -3.265625 1.75 -3.265625 C 1.988281 -3.265625 2.210938 -3.203125 2.421875 -3.078125 C 2.628906 -2.960938 2.789062 -2.804688 2.90625 -2.609375 L 2.90625 -4.4375 C 2.90625 -4.488281 2.921875 -4.53125 2.953125 -4.5625 C 2.984375 -4.601562 3.03125 -4.625 3.09375 -4.625 Z M 1.78125 -0.28125 C 2 -0.28125 2.191406 -0.335938 2.359375 -0.453125 C 2.535156 -0.566406 2.671875 -0.722656 2.765625 -0.921875 C 2.867188 -1.128906 2.921875 -1.359375 2.921875 -1.609375 C 2.921875 -1.847656 2.867188 -2.066406 2.765625 -2.265625 C 2.671875 -2.472656 2.535156 -2.632812 2.359375 -2.75 C 2.191406 -2.863281 2 -2.921875 1.78125 -2.921875 C 1.570312 -2.921875 1.378906 -2.863281 1.203125 -2.75 C 1.023438 -2.632812 0.890625 -2.472656 0.796875 -2.265625 C 0.703125 -2.066406 0.65625 -1.847656 0.65625 -1.609375 C 0.65625 -1.359375 0.703125 -1.128906 0.796875 -0.921875 C 0.890625 -0.722656 1.023438 -0.566406 1.203125 -0.453125 C 1.378906 -0.335938 1.570312 -0.28125 1.78125 -0.28125 Z M 1.78125 -0.28125 "/></g></g></g><g fill="#000000" fill-opacity="1"><g transform="translate(83.937381, 35.357072)"><g><path d="M 2.875 -3.171875 C 2.9375 -3.171875 2.984375 -3.148438 3.015625 -3.109375 C 3.046875 -3.078125 3.0625 -3.035156 3.0625 -2.984375 L 3.0625 -1.21875 C 3.0625 -0.8125 2.945312 -0.5 2.71875 -0.28125 C 2.488281 -0.0625 2.175781 0.046875 1.78125 0.046875 C 1.375 0.046875 1.054688 -0.0625 0.828125 -0.28125 C 0.609375 -0.5 0.5 -0.8125 0.5 -1.21875 L 0.5 -2.984375 C 0.5 -3.035156 0.515625 -3.078125 0.546875 -3.109375 C 0.578125 -3.148438 0.625 -3.171875 0.6875 -3.171875 C 0.738281 -3.171875 0.78125 -3.148438 0.8125 -3.109375 C 0.851562 -3.078125 0.875 -3.035156 0.875 -2.984375 L 0.875 -1.21875 C 0.875 -0.925781 0.953125 -0.703125 1.109375 -0.546875 C 1.265625 -0.390625 1.488281 -0.3125 1.78125 -0.3125 C 2.070312 -0.3125 2.296875 -0.390625 2.453125 -0.546875 C 2.609375 -0.703125 2.6875 -0.925781 2.6875 -1.21875 L 2.6875 -2.984375 C 2.6875 -3.035156 2.703125 -3.078125 2.734375 -3.109375 C 2.773438 -3.148438 2.820312 -3.171875 2.875 -3.171875 Z M 2.875 -3.171875 "/></g></g></g><g fill="#000000" fill-opacity="1"><g transform="translate(91.569156, 35.357072)"><g><path d="M 1.875 -3.265625 C 2.070312 -3.265625 2.253906 -3.242188 2.421875 -3.203125 C 2.585938 -3.160156 2.722656 -3.097656 2.828125 -3.015625 C 2.929688 -2.941406 2.984375 -2.863281 2.984375 -2.78125 C 2.984375 -2.738281 2.96875 -2.695312 2.9375 -2.65625 C 2.90625 -2.613281 2.863281 -2.59375 2.8125 -2.59375 C 2.769531 -2.59375 2.734375 -2.601562 2.703125 -2.625 C 2.679688 -2.644531 2.65625 -2.671875 2.625 -2.703125 C 2.570312 -2.753906 2.519531 -2.789062 2.46875 -2.8125 C 2.40625 -2.84375 2.320312 -2.867188 2.21875 -2.890625 C 2.113281 -2.910156 2.003906 -2.921875 1.890625 -2.921875 C 1.660156 -2.921875 1.453125 -2.859375 1.265625 -2.734375 C 1.078125 -2.617188 0.925781 -2.460938 0.8125 -2.265625 C 0.707031 -2.066406 0.65625 -1.847656 0.65625 -1.609375 C 0.65625 -1.359375 0.707031 -1.128906 0.8125 -0.921875 C 0.914062 -0.722656 1.0625 -0.566406 1.25 -0.453125 C 1.4375 -0.335938 1.644531 -0.28125 1.875 -0.28125 C 2.03125 -0.28125 2.148438 -0.289062 2.234375 -0.3125 C 2.328125 -0.34375 2.414062 -0.382812 2.5 -0.4375 C 2.53125 -0.445312 2.582031 -0.484375 2.65625 -0.546875 C 2.6875 -0.578125 2.710938 -0.597656 2.734375 -0.609375 C 2.765625 -0.617188 2.796875 -0.625 2.828125 -0.625 C 2.878906 -0.625 2.914062 -0.609375 2.9375 -0.578125 C 2.96875 -0.546875 2.984375 -0.507812 2.984375 -0.46875 C 2.984375 -0.394531 2.929688 -0.316406 2.828125 -0.234375 C 2.734375 -0.148438 2.597656 -0.078125 2.421875 -0.015625 C 2.242188 0.0351562 2.050781 0.0625 1.84375 0.0625 C 1.539062 0.0625 1.269531 -0.0078125 1.03125 -0.15625 C 0.789062 -0.300781 0.601562 -0.5 0.46875 -0.75 C 0.34375 -1 0.28125 -1.285156 0.28125 -1.609375 C 0.28125 -1.910156 0.347656 -2.1875 0.484375 -2.4375 C 0.617188 -2.6875 0.804688 -2.882812 1.046875 -3.03125 C 1.285156 -3.1875 1.5625 -3.265625 1.875 -3.265625 Z M 1.875 -3.265625 "/></g></g></g><g fill="#000000" fill-opacity="1"><g transform="translate(98.857271, 35.357072)"><g><path d="M 1.125 -2.828125 L 1.125 -0.734375 C 1.125 -0.578125 1.148438 -0.46875 1.203125 -0.40625 C 1.265625 -0.351562 1.34375 -0.328125 1.4375 -0.328125 C 1.457031 -0.328125 1.488281 -0.332031 1.53125 -0.34375 C 1.570312 -0.351562 1.601562 -0.359375 1.625 -0.359375 C 1.65625 -0.359375 1.679688 -0.34375 1.703125 -0.3125 C 1.734375 -0.28125 1.75 -0.242188 1.75 -0.203125 C 1.75 -0.148438 1.71875 -0.101562 1.65625 -0.0625 C 1.59375 -0.0195312 1.515625 0 1.421875 0 C 1.304688 0 1.203125 -0.0078125 1.109375 -0.03125 C 1.023438 -0.0507812 0.941406 -0.113281 0.859375 -0.21875 C 0.785156 -0.320312 0.75 -0.488281 0.75 -0.71875 L 0.75 -2.828125 L 0.28125 -2.828125 C 0.238281 -2.828125 0.195312 -2.84375 0.15625 -2.875 C 0.125 -2.914062 0.109375 -2.957031 0.109375 -3 C 0.109375 -3.050781 0.125 -3.09375 0.15625 -3.125 C 0.195312 -3.164062 0.238281 -3.1875 0.28125 -3.1875 L 0.75 -3.1875 L 0.75 -3.875 C 0.75 -3.925781 0.765625 -3.96875 0.796875 -4 C 0.828125 -4.039062 0.875 -4.0625 0.9375 -4.0625 C 0.988281 -4.0625 1.03125 -4.039062 1.0625 -4 C 1.101562 -3.96875 1.125 -3.925781 1.125 -3.875 L 1.125 -3.1875 L 1.75 -3.1875 C 1.789062 -3.1875 1.828125 -3.164062 1.859375 -3.125 C 1.898438 -3.082031 1.921875 -3.039062 1.921875 -3 C 1.921875 -2.945312 1.898438 -2.90625 1.859375 -2.875 C 1.828125 -2.84375 1.789062 -2.828125 1.75 -2.828125 Z M 1.125 -2.828125 "/></g></g></g><g fill="#000000" fill-opacity="1"><g transform="translate(105.051922, 35.357072)"><g><path d="M 0.859375 -0.1875 C 0.859375 -0.132812 0.835938 -0.0859375 0.796875 -0.046875 C 0.765625 -0.015625 0.722656 0 0.671875 0 C 0.617188 0 0.570312 -0.015625 0.53125 -0.046875 C 0.5 -0.0859375 0.484375 -0.132812 0.484375 -0.1875 L 0.484375 -3.0625 C 0.484375 -3.113281 0.5 -3.15625 0.53125 -3.1875 C 0.570312 -3.226562 0.617188 -3.25 0.671875 -3.25 C 0.722656 -3.25 0.765625 -3.226562 0.796875 -3.1875 C 0.835938 -3.15625 0.859375 -3.113281 0.859375 -3.0625 Z M 0.671875 -3.671875 C 0.585938 -3.671875 0.519531 -3.691406 0.46875 -3.734375 C 0.425781 -3.773438 0.40625 -3.832031 0.40625 -3.90625 L 0.40625 -3.96875 C 0.40625 -4.039062 0.425781 -4.097656 0.46875 -4.140625 C 0.519531 -4.179688 0.585938 -4.203125 0.671875 -4.203125 C 0.835938 -4.203125 0.921875 -4.125 0.921875 -3.96875 L 0.921875 -3.90625 C 0.921875 -3.832031 0.898438 -3.773438 0.859375 -3.734375 C 0.816406 -3.691406 0.753906 -3.671875 0.671875 -3.671875 Z M 0.671875 -3.671875 "/></g></g></g><g fill="#000000" fill-opacity="1"><g transform="translate(110.465525, 35.357072)"><g><path d="M 2.90625 -3.25 C 2.945312 -3.25 2.984375 -3.234375 3.015625 -3.203125 C 3.054688 -3.179688 3.078125 -3.144531 3.078125 -3.09375 C 3.078125 -3.0625 3.070312 -3.03125 3.0625 -3 L 1.828125 -0.125 C 1.816406 -0.0820312 1.796875 -0.0507812 1.765625 -0.03125 C 1.734375 -0.0078125 1.695312 0 1.65625 0 C 1.613281 0 1.578125 -0.0078125 1.546875 -0.03125 C 1.515625 -0.0507812 1.488281 -0.0820312 1.46875 -0.125 L 0.25 -3 C 0.25 -3 0.242188 -3.007812 0.234375 -3.03125 C 0.222656 -3.050781 0.21875 -3.066406 0.21875 -3.078125 C 0.21875 -3.128906 0.234375 -3.171875 0.265625 -3.203125 C 0.304688 -3.242188 0.359375 -3.265625 0.421875 -3.265625 C 0.453125 -3.265625 0.484375 -3.25 0.515625 -3.21875 C 0.546875 -3.195312 0.570312 -3.171875 0.59375 -3.140625 L 1.65625 -0.609375 L 2.71875 -3.140625 C 2.738281 -3.171875 2.765625 -3.195312 2.796875 -3.21875 C 2.828125 -3.25 2.863281 -3.257812 2.90625 -3.25 Z M 2.90625 -3.25 "/></g></g></g><g fill="#000000" fill-opacity="1"><g transform="translate(117.847373, 35.357072)"><g><path d="M 0.859375 -0.1875 C 0.859375 -0.132812 0.835938 -0.0859375 0.796875 -0.046875 C 0.765625 -0.015625 0.722656 0 0.671875 0 C 0.617188 0 0.570312 -0.015625 0.53125 -0.046875 C 0.5 -0.0859375 0.484375 -0.132812 0.484375 -0.1875 L 0.484375 -3.0625 C 0.484375 -3.113281 0.5 -3.15625 0.53125 -3.1875 C 0.570312 -3.226562 0.617188 -3.25 0.671875 -3.25 C 0.722656 -3.25 0.765625 -3.226562 0.796875 -3.1875 C 0.835938 -3.15625 0.859375 -3.113281 0.859375 -3.0625 Z M 0.671875 -3.671875 C 0.585938 -3.671875 0.519531 -3.691406 0.46875 -3.734375 C 0.425781 -3.773438 0.40625 -3.832031 0.40625 -3.90625 L 0.40625 -3.96875 C 0.40625 -4.039062 0.425781 -4.097656 0.46875 -4.140625 C 0.519531 -4.179688 0.585938 -4.203125 0.671875 -4.203125 C 0.835938 -4.203125 0.921875 -4.125 0.921875 -3.96875 L 0.921875 -3.90625 C 0.921875 -3.832031 0.898438 -3.773438 0.859375 -3.734375 C 0.816406 -3.691406 0.753906 -3.671875 0.671875 -3.671875 Z M 0.671875 -3.671875 "/></g></g></g><g fill="#000000" fill-opacity="1"><g transform="translate(123.260979, 35.357072)"><g><path d="M 1.125 -2.828125 L 1.125 -0.734375 C 1.125 -0.578125 1.148438 -0.46875 1.203125 -0.40625 C 1.265625 -0.351562 1.34375 -0.328125 1.4375 -0.328125 C 1.457031 -0.328125 1.488281 -0.332031 1.53125 -0.34375 C 1.570312 -0.351562 1.601562 -0.359375 1.625 -0.359375 C 1.65625 -0.359375 1.679688 -0.34375 1.703125 -0.3125 C 1.734375 -0.28125 1.75 -0.242188 1.75 -0.203125 C 1.75 -0.148438 1.71875 -0.101562 1.65625 -0.0625 C 1.59375 -0.0195312 1.515625 0 1.421875 0 C 1.304688 0 1.203125 -0.0078125 1.109375 -0.03125 C 1.023438 -0.0507812 0.941406 -0.113281 0.859375 -0.21875 C 0.785156 -0.320312 0.75 -0.488281 0.75 -0.71875 L 0.75 -2.828125 L 0.28125 -2.828125 C 0.238281 -2.828125 0.195312 -2.84375 0.15625 -2.875 C 0.125 -2.914062 0.109375 -2.957031 0.109375 -3 C 0.109375 -3.050781 0.125 -3.09375 0.15625 -3.125 C 0.195312 -3.164062 0.238281 -3.1875 0.28125 -3.1875 L 0.75 -3.1875 L 0.75 -3.875 C 0.75 -3.925781 0.765625 -3.96875 0.796875 -4 C 0.828125 -4.039062 0.875 -4.0625 0.9375 -4.0625 C 0.988281 -4.0625 1.03125 -4.039062 1.0625 -4 C 1.101562 -3.96875 1.125 -3.925781 1.125 -3.875 L 1.125 -3.1875 L 1.75 -3.1875 C 1.789062 -3.1875 1.828125 -3.164062 1.859375 -3.125 C 1.898438 -3.082031 1.921875 -3.039062 1.921875 -3 C 1.921875 -2.945312 1.898438 -2.90625 1.859375 -2.875 C 1.828125 -2.84375 1.789062 -2.828125 1.75 -2.828125 Z M 1.125 -2.828125 "/></g></g></g><g fill="#000000" fill-opacity="1"><g transform="translate(129.455634, 35.357072)"><g><path d="M 2.875 -3.25 C 2.925781 -3.25 2.96875 -3.226562 3 -3.1875 C 3.039062 -3.15625 3.0625 -3.113281 3.0625 -3.0625 L 3.0625 -0.3125 C 3.0625 0.0195312 2.992188 0.300781 2.859375 0.53125 C 2.734375 0.769531 2.554688 0.945312 2.328125 1.0625 C 2.097656 1.1875 1.84375 1.25 1.5625 1.25 C 1.382812 1.25 1.21875 1.226562 1.0625 1.1875 C 0.914062 1.15625 0.789062 1.109375 0.6875 1.046875 C 0.601562 0.992188 0.5625 0.929688 0.5625 0.859375 C 0.5625 0.847656 0.5625 0.828125 0.5625 0.796875 C 0.582031 0.753906 0.601562 0.722656 0.625 0.703125 C 0.65625 0.679688 0.6875 0.671875 0.71875 0.671875 C 0.75 0.671875 0.773438 0.675781 0.796875 0.6875 C 1.066406 0.832031 1.320312 0.90625 1.5625 0.90625 C 1.90625 0.90625 2.175781 0.796875 2.375 0.578125 C 2.582031 0.367188 2.6875 0.078125 2.6875 -0.296875 L 2.6875 -0.515625 C 2.582031 -0.335938 2.429688 -0.195312 2.234375 -0.09375 C 2.035156 0.0078125 1.820312 0.0625 1.59375 0.0625 C 1.238281 0.0625 0.96875 -0.046875 0.78125 -0.265625 C 0.59375 -0.484375 0.5 -0.773438 0.5 -1.140625 L 0.5 -3.0625 C 0.5 -3.113281 0.515625 -3.15625 0.546875 -3.1875 C 0.578125 -3.226562 0.625 -3.25 0.6875 -3.25 C 0.738281 -3.25 0.78125 -3.226562 0.8125 -3.1875 C 0.851562 -3.15625 0.875 -3.113281 0.875 -3.0625 L 0.875 -1.203125 C 0.875 -0.898438 0.9375 -0.671875 1.0625 -0.515625 C 1.195312 -0.359375 1.40625 -0.28125 1.6875 -0.28125 C 1.851562 -0.28125 2.015625 -0.320312 2.171875 -0.40625 C 2.328125 -0.5 2.453125 -0.613281 2.546875 -0.75 C 2.640625 -0.894531 2.6875 -1.046875 2.6875 -1.203125 L 2.6875 -3.0625 C 2.6875 -3.113281 2.703125 -3.15625 2.734375 -3.1875 C 2.773438 -3.226562 2.820312 -3.25 2.875 -3.25 Z M 2.875 -3.25 "/></g></g></g></svg>